<?xml version="1.0" encoding="utf-8"?>
<!-- Generator: Adobe Illustrator 21.1.0, SVG Export Plug-In . SVG Version: 6.00 Build 0)  -->
<svg version="1.1" id="Layer_1" xmlns="http://www.w3.org/2000/svg" xmlns:xlink="http://www.w3.org/1999/xlink" x="0px" y="0px"
	 viewBox="0 0 512 512" style="enable-background:new 0 0 512 512;" xml:space="preserve">
<style type="text/css">
	.st0{fill:#00BA54;}
	.st1{fill:#999999;}
	.st2{fill:#B7B7B7;}
	.st3{fill:#333333;}
	.st4{fill:#5B5B5B;}
</style>
<path class="st0" d="M224.9,208.2c2.6,22.8,16.2,42.1-46.4,46.3c-23.4,1.6-33,6.5-28.6,13.6c18.4,29.3-139,59.4-139,59.4l0,0
	c35.2-34.7,98.5-106.8,93.3-112.9c-4.1-4.8,5.3-21.8,22.2-25.5c49.2-10.7,66.2-45.3,66.2-45.3"/>
<rect x="258" y="113.8" transform="matrix(0.9078 -0.4195 0.4195 0.9078 -95.5533 137.0191)" class="st1" width="11.6" height="344.1"/>
<polygon class="st2" points="337.9,441.1 341.3,439.5 200.1,134 196.3,135.7 "/>
<ellipse transform="matrix(0.9078 -0.4195 0.4195 0.9078 -33.4026 89.87)" class="st3" cx="187.7" cy="120.9" rx="17.6" ry="17.6"/>
<path class="st4" d="M204.5,114.7c2.2,6.1,2,12.1-5.4,19.6c-4.4,4.4-11.4-4.7-14.7-13.3c-3.2-8.6-1-17.6,5.4-17.1
	C199.2,104.5,203.4,111.9,204.5,114.7z"/>
<path class="st0" d="M314.4,142.7c0,0,17,34.6,66.2,45.3c16.9,3.7,26.2,20.6,22.2,25.5c-5.1,6.1,58.1,78.2,93.3,112.9l0,0
	c0,0-157.4-30.2-139-59.4c4.4-7.1-5.2-12.1-28.6-13.6c-62.6-4.2-49-23.5-46.4-46.3"/>
<rect x="71.1" y="278.7" transform="matrix(0.4195 -0.9078 0.9078 0.4195 -117.1203 385.8307)" class="st1" width="344.1" height="11.6"/>
<polygon class="st2" points="169.1,439.8 165.7,438.2 306.8,132.8 310.6,134.4 "/>
<ellipse transform="matrix(0.4195 -0.9078 0.9078 0.4195 76.8313 359.2973)" class="st3" cx="319.3" cy="119.6" rx="17.6" ry="17.6"/>
<path class="st4" d="M302.5,113.4c-2.2,6.1-2,12.1,5.4,19.6c4.4,4.4,11.4-4.7,14.7-13.3c3.2-8.6,1-17.6-5.4-17.1
	C307.7,103.2,303.5,110.6,302.5,113.4z"/>
</svg>
